<svg viewBox="0 0 238 51"
  xmlns="http://www.w3.org/2000/svg" fill-rule="evenodd" clip-rule="evenodd" stroke-linejoin="round" stroke-miterlimit="1.4142">
  <path d="M44.9506 16.1128c-4.8494-8.3994-15.6055-11.2814-24.0048-6.432L-.0025 21.7752l8.7922 15.2284c4.8461 8.3937 15.5951 11.2737 23.9889 6.4275L53.7369 31.331l-8.7863-15.2182z" fill="#b54e00"/>
  <path d="M59.2823 16.73C56.223 5.3123 44.4697-1.4734 33.0521 1.5859L4.576 9.216l5.5468 20.7008c3.0573 11.41 14.8029 18.1912 26.213 15.1339l28.4896-7.6338-5.543-20.687z" fill="#903e00"/>
  <g fill="#252b2d" fill-rule="nonzero">
    <path d="M83.592 6.5736h6.3483v34.778H83.592zM100.1523 41.3515H93.804V15.9583h6.3483v25.3932zm-3.0357-28.7058c-.9571 0-1.7944-.3584-2.5118-1.0764-.718-.7173-1.0763-1.5546-1.0763-2.5117 0-.9565.3583-1.7938 1.0763-2.5112.7174-.718 1.5547-1.077 2.5118-1.077.9565 0 1.7937.359 2.5118 1.077.7173.7174 1.0764 1.5547 1.0764 2.5112 0 .9571-.359 1.7944-1.0764 2.5117-.718.718-1.5553 1.0764-2.5118 1.0764zM113.677 15.682c1.1041 0 2.0977.1471 2.9813.4419.883.294 1.6374.6074 2.2634.9386.6988.4047 1.3433.8644 1.9322 1.3797l1.1035-2.484h4.6923v23.7374c0 3.3119-1.0578 5.98-3.1741 8.0042-2.1157 2.0243-5.1063 3.0364-8.97 3.0364-2.3555 0-4.2598-.4233-5.7138-1.2698-1.454-.8465-2.6038-1.8037-3.4503-2.8708-.9565-1.2141-1.6746-2.5945-2.1528-4.1399h6.3483c.2577.4783.6074.9015 1.0486 1.2691.4053.2948.92.571 1.546.8287.626.257 1.4168.3862 2.374.3862 1.803 0 3.2198-.4876 4.2505-1.4632 1.03-.975 1.5453-2.2356 1.5453-3.781v-1.9321c-.5153.5153-1.1042.975-1.7665 1.3797-.5889.3683-1.2877.6902-2.0978.9664-.8095.2756-1.7295.414-2.7602.414-1.5824 0-3.082-.3126-4.499-.9386-1.4168-.626-2.6495-1.4903-3.698-2.5945-1.0492-1.1042-1.8772-2.4105-2.4846-3.9194-.6068-1.5089-.9108-3.1649-.9108-4.9685 0-1.803.304-3.459.9108-4.968.6074-1.5088 1.4354-2.815 2.4846-3.9193 1.0485-1.1042 2.2812-1.9692 3.698-2.5945 1.417-.626 2.9166-.9386 4.499-.9386zm-5.2442 12.4205c0 .8836.1563 1.7116.4696 2.4846.3127.7723.7452 1.444 1.297 2.015.5524.5703 1.1963 1.0207 1.9322 1.3519.7359.3312 1.5274.4968 2.374.4968.8094 0 1.5824-.1656 2.3183-.4968.736-.3312 1.3798-.7816 1.9322-1.352.5518-.571.9936-1.2426 1.3248-2.015.3312-.773.4968-1.6009.4968-2.4845 0-.883-.1656-1.711-.4968-2.484-.3312-.773-.773-1.4446-1.3248-2.015-.5524-.5703-1.1963-1.0207-1.9322-1.3519-.7359-.3318-1.5089-.4974-2.3183-.4974-.8466 0-1.6381.1656-2.374.4974-.736.3312-1.3798.7816-1.9322 1.352-.5518.5703-.9843 1.242-1.297 2.015-.3133.773-.4696 1.601-.4696 2.4839zM142.3827 15.682c1.362 0 2.6403.2485 3.8366.7453 1.1963.4967 2.217 1.2148 3.0635 2.1527.8465.9386 1.5182 2.0706 2.015 3.3954.4968 1.3248.7452 2.8151.7452 4.4711v14.905h-6.3483v-14.077c0-1.656-.4875-2.99-1.4626-4.0021-.9757-1.0122-2.2362-1.5182-3.7815-1.5182-1.546 0-2.806.506-3.7816 1.5182-.975 1.012-1.4625 2.3461-1.4625 4.002v14.0771h-6.3484V6.5736h6.3484v11.8686c.4782-.5153 1.0485-.975 1.7109-1.3797.5889-.3312 1.334-.6445 2.2362-.9386.9015-.2948 1.9779-.4418 3.2291-.4418zM157.8395 9.8862h5.5203v6.072h5.5204v5.796h-5.5204V32.243c0 1.1042.322 1.978.9658 2.6224.6438.6439 1.5182.9658 2.6224.9658.294 0 .5332-.0093.7174-.0278.1841-.0186.3497-.0457.4967-.0828a2.142 2.142 0 0 0 .4419-.1656v5.5203c-.2577.1106-.5518.2027-.883.2762-.626.1842-1.3433.2762-2.1534.2762-1.2513 0-2.4012-.212-3.4497-.6352-1.0492-.4233-1.9508-1.0393-2.7052-1.8494-.7545-.8094-1.3433-1.7666-1.7666-2.8701-.4233-1.1042-.6346-2.3554-.6346-3.7537V21.7542h-3.8643V16.51h1.656c2.0242 0 3.0363-1.0122 3.0363-3.0358V9.8862zM183.7845 41.6277c-1.1042 0-2.0978-.1384-2.9807-.414-.8836-.2762-1.6374-.598-2.2634-.9664-.736-.4047-1.3797-.865-1.9322-1.3797l-1.1042 2.484h-4.6917V6.5735h6.3484V18.166c.5146-.4411 1.1035-.8458 1.7659-1.2141.5888-.2948 1.279-.5796 2.0706-.8558.7909-.2763 1.7202-.414 2.7873-.414 1.5825 0 3.0914.3219 4.5268.9664 1.4354.6438 2.6959 1.5453 3.7815 2.7045 1.0857 1.1592 1.95 2.5303 2.5946 4.1128.6438 1.5824.9657 3.3119.9657 5.1891 0 1.8765-.3219 3.6067-.9657 5.1891-.6445 1.5825-1.509 2.953-2.5946 4.1121-1.0856 1.1599-2.3461 2.0614-3.7815 2.7052-1.4354.6439-2.9443.9664-4.5268.9664zm-7.1763-12.9728c0 2.0978.6074 3.7723 1.8216 5.0235 1.2148 1.2513 2.7237 1.8766 4.5267 1.8766 1.8037 0 3.312-.6253 4.5268-1.8766 1.2141-1.2512 1.8215-2.9257 1.8215-5.0235 0-2.0978-.6074-3.7723-1.8215-5.0235-1.2148-1.2513-2.723-1.8772-4.5268-1.8772-1.803 0-3.3119.626-4.5267 1.8772-1.2142 1.2512-1.8216 2.9257-1.8216 5.0235zM202.5539 28.6549c0 2.0978.6067 3.7723 1.8215 5.0235 1.2142 1.2513 2.7231 1.8766 4.5268 1.8766 1.803 0 3.312-.6253 4.526-1.8766 1.2149-1.2512 1.8223-2.9257 1.8223-5.0235 0-2.0978-.6074-3.7723-1.8222-5.0235-1.2142-1.2513-2.723-1.8772-4.5261-1.8772-1.8037 0-3.3126.626-4.5268 1.8772-1.2148 1.2512-1.8215 2.9257-1.8215 5.0235zm19.045 0c0 1.803-.3406 3.4868-1.0215 5.0507-.681 1.5646-1.601 2.935-2.7602 4.1128-1.1591 1.1777-2.5024 2.107-4.03 2.788-1.5274.6809-3.1555 1.0213-4.885 1.0213-1.7302 0-3.3583-.3404-4.8858-1.0214-1.5274-.6809-2.8707-1.6102-4.03-2.788-1.1591-1.1777-2.0792-2.5481-2.76-4.1127-.681-1.5639-1.0208-3.2477-1.0208-5.0507 0-1.8037.3398-3.4868 1.0207-5.0514.681-1.5638 1.601-2.935 2.7602-4.112 1.1592-1.1778 2.5025-2.1071 4.03-2.788 1.5274-.681 3.1555-1.0214 4.8857-1.0214 1.7295 0 3.3576.3404 4.885 1.0214 1.5276.6809 2.8709 1.6102 4.03 2.788 1.1592 1.177 2.0793 2.5482 2.7602 4.112.681 1.5646 1.0214 3.2477 1.0214 5.0514zM226.2905 9.8862h5.5203v6.072h5.5203v5.796h-5.5203V32.243c0 1.1042.322 1.978.9664 2.6224.6439.6439 1.5182.9658 2.6218.9658.2947 0 .5338-.0093.718-.0278.1841-.0186.3497-.0457.4968-.0828.147-.0365.294-.0921.4411-.1656v5.5203c-.257.1106-.5517.2027-.883.2762-.6252.1842-1.3433.2762-2.1527.2762-1.2512 0-2.4011-.212-3.4504-.6352-1.0485-.4233-1.9507-1.0393-2.7045-1.8494-.7544-.8094-1.3433-1.7666-1.7666-2.8701-.4232-1.1042-.6352-2.3554-.6352-3.7537V21.7542h-3.8637V16.51h1.656c2.0236 0 3.0357-1.0122 3.0357-3.0358V9.8862z"/>
  </g>
  <path d="M64.781 22.9096c0-12.625-10.2499-22.8748-22.8748-22.8748H14.4187v22.8899c0 12.6166 10.2432 22.8595 22.8598 22.8595H64.781V22.9096z" fill="#ff6d00"/>
  <circle cx="3550.99" cy="10108.4" r="4.182" fill="#6b2e00" fill-opacity=".498" transform="matrix(.84854 0 0 .92568 -2984.3846 -9334.179)"/>
  <circle cx="3550.99" cy="10108.4" r="4.182" fill="#6b2e00" fill-opacity=".749" transform="matrix(.84854 0 0 .92568 -2973.5488 -9334.179)"/>
  <circle cx="3550.99" cy="10108.4" r="4.182" fill="#6b2e00" transform="matrix(.84854 0 0 .92568 -2962.7214 -9334.1698)"/>
</svg>
