<svg viewBox="0 0 65 46"
  xmlns="http://www.w3.org/2000/svg" fill-rule="evenodd" clip-rule="evenodd" stroke-linejoin="round" stroke-miterlimit="1.4142">
  <path d="M44.9556 16.0127c-4.8494-8.3994-15.6055-11.2814-24.0048-6.432L.0025 21.6751l8.7922 15.2284c4.8461 8.3937 15.5951 11.2737 23.9889 6.4275L53.7419 31.231l-8.7863-15.2182z" fill="#b54e00"/>
  <path d="M59.2873 16.6303C56.228 5.2126 44.4747-1.5731 33.0571 1.4862L4.581 9.1163l5.5468 20.7008c3.0573 11.41 14.8029 18.1912 26.213 15.1339l28.4896-7.6338-5.543-20.687z" fill="#903e00"/>
  <path d="M64.776 22.8097c0-12.6251-10.2499-22.8748-22.8748-22.8748H14.4137v22.8898c0 12.6167 10.2432 22.8595 22.8598 22.8595H64.776V22.8097z" fill="#ff6d00"/>
  <circle cx="3550.99" cy="10108.4" r="4.182" fill="#6b2e00" fill-opacity=".498" transform="matrix(.84854 0 0 .92568 -2984.3847 -9334.279)"/>
  <circle cx="3550.99" cy="10108.4" r="4.182" fill="#6b2e00" fill-opacity=".749" transform="matrix(.84854 0 0 .92568 -2973.5489 -9334.279)"/>
  <circle cx="3550.99" cy="10108.4" r="4.182" fill="#6b2e00" transform="matrix(.84854 0 0 .92568 -2962.7215 -9334.2698)"/>
</svg>
