<?xml version="1.0" encoding="UTF-8" standalone="no"?>
<!DOCTYPE svg PUBLIC "-//W3C//DTD SVG 1.1//EN" "http://www.w3.org/Graphics/SVG/1.1/DTD/svg11.dtd">
<svg width="100%" height="100%" viewBox="0 0 238 51" version="1.1" xmlns="http://www.w3.org/2000/svg" xmlns:xlink="http://www.w3.org/1999/xlink" xml:space="preserve" xmlns:serif="http://www.serif.com/" style="fill-rule:evenodd;clip-rule:evenodd;stroke-linejoin:round;stroke-miterlimit:1.41421;">
    <g transform="matrix(1,0,0,1,-661.416,-13361.8)">
        <g transform="matrix(1,0,0,1,-1074,12992)">
            <g transform="matrix(0.0868334,-0.0501333,0.105177,0.182171,1677.03,364.76)">
                <path d="M787.2,332.576C787.2,286.469 708.669,249.037 611.94,249.037L370.693,249.037L370.693,332.631C370.693,378.707 449.173,416.114 545.838,416.114L787.2,416.114L787.2,332.576Z" style="fill:rgb(181,78,0);"/>
            </g>
        </g>
        <g transform="matrix(1,0,0,1,-1074,12992)">
            <g transform="matrix(0.118037,-0.0316279,0.0663536,0.247635,1679.71,329.039)">
                <path d="M787.2,332.576C787.2,286.469 708.669,249.037 611.94,249.037L370.693,249.037L370.693,332.631C370.693,378.707 449.173,416.114 545.838,416.114L787.2,416.114L787.2,332.576Z" style="fill:rgb(144,62,0);"/>
            </g>
        </g>
        <g transform="matrix(1,0,0,1,-1074,12992)">
            <g transform="matrix(0.662386,0,0,0.662386,1476.83,149.898)">
                <rect x="516.584" y="341.862" width="9.584" height="52.504" style="fill:white;fill-rule:nonzero;"/>
                <path d="M541.585,394.366L532.001,394.366L532.001,356.03L541.585,356.03L541.585,394.366ZM537.002,351.029C535.557,351.029 534.293,350.488 533.21,349.404C532.126,348.321 531.585,347.057 531.585,345.612C531.585,344.168 532.126,342.904 533.21,341.821C534.293,340.737 535.557,340.195 537.002,340.195C538.446,340.195 539.71,340.737 540.794,341.821C541.877,342.904 542.419,344.168 542.419,345.612C542.419,347.057 541.877,348.321 540.794,349.404C539.71,350.488 538.446,351.029 537.002,351.029Z" style="fill:white;fill-rule:nonzero;"/>
                <path d="M562.003,355.613C563.67,355.613 565.17,355.835 566.504,356.28C567.837,356.724 568.976,357.197 569.921,357.697C570.976,358.308 571.949,359.002 572.838,359.78L574.504,356.03L581.588,356.03L581.588,391.866C581.588,396.866 579.991,400.894 576.796,403.95C573.602,407.006 569.087,408.534 563.254,408.534C559.698,408.534 556.823,407.895 554.628,406.617C552.433,405.339 550.697,403.894 549.419,402.283C547.975,400.45 546.891,398.366 546.169,396.033L555.753,396.033C556.142,396.755 556.67,397.394 557.336,397.949C557.948,398.394 558.725,398.811 559.67,399.2C560.615,399.588 561.809,399.783 563.254,399.783C565.976,399.783 568.115,399.047 569.671,397.574C571.226,396.102 572.004,394.199 572.004,391.866L572.004,388.949C571.226,389.727 570.337,390.421 569.337,391.032C568.448,391.588 567.393,392.074 566.17,392.491C564.948,392.907 563.559,393.116 562.003,393.116C559.614,393.116 557.35,392.644 555.211,391.699C553.072,390.754 551.211,389.449 549.628,387.782C548.044,386.115 546.794,384.143 545.877,381.865C544.961,379.587 544.502,377.087 544.502,374.364C544.502,371.642 544.961,369.142 545.877,366.864C546.794,364.586 548.044,362.614 549.628,360.947C551.211,359.28 553.072,357.974 555.211,357.03C557.35,356.085 559.614,355.613 562.003,355.613ZM554.086,374.364C554.086,375.698 554.322,376.948 554.795,378.115C555.267,379.281 555.92,380.295 556.753,381.157C557.587,382.018 558.559,382.698 559.67,383.198C560.781,383.698 561.976,383.948 563.254,383.948C564.476,383.948 565.643,383.698 566.754,383.198C567.865,382.698 568.837,382.018 569.671,381.157C570.504,380.295 571.171,379.281 571.671,378.115C572.171,376.948 572.421,375.698 572.421,374.364C572.421,373.031 572.171,371.781 571.671,370.614C571.171,369.447 570.504,368.433 569.671,367.572C568.837,366.711 567.865,366.031 566.754,365.531C565.643,365.03 564.476,364.78 563.254,364.78C561.976,364.78 560.781,365.03 559.67,365.531C558.559,366.031 557.587,366.711 556.753,367.572C555.92,368.433 555.267,369.447 554.795,370.614C554.322,371.781 554.086,373.031 554.086,374.364Z" style="fill:white;fill-rule:nonzero;"/>
                <path d="M605.34,355.613C607.396,355.613 609.326,355.988 611.132,356.738C612.938,357.488 614.479,358.572 615.757,359.988C617.035,361.405 618.049,363.114 618.799,365.114C619.549,367.114 619.924,369.364 619.924,371.864L619.924,394.366L610.34,394.366L610.34,373.114C610.34,370.614 609.604,368.6 608.132,367.072C606.659,365.544 604.756,364.78 602.423,364.78C600.089,364.78 598.187,365.544 596.714,367.072C595.242,368.6 594.506,370.614 594.506,373.114L594.506,394.366L584.922,394.366L584.922,341.862L594.506,341.862L594.506,359.78C595.228,359.002 596.089,358.308 597.089,357.697C597.978,357.197 599.103,356.724 600.465,356.28C601.826,355.835 603.451,355.613 605.34,355.613Z" style="fill:white;fill-rule:nonzero;"/>
                <path d="M628.675,346.863L637.009,346.863L637.009,356.03L645.343,356.03L645.343,364.78L637.009,364.78L637.009,380.615C637.009,382.282 637.495,383.601 638.467,384.574C639.439,385.546 640.759,386.032 642.426,386.032C642.87,386.032 643.231,386.018 643.509,385.99C643.787,385.962 644.037,385.921 644.259,385.865C644.481,385.81 644.704,385.726 644.926,385.615L644.926,393.949C644.537,394.116 644.093,394.255 643.593,394.366C642.648,394.644 641.565,394.783 640.342,394.783C638.453,394.783 636.717,394.463 635.134,393.824C633.55,393.185 632.189,392.255 631.05,391.032C629.911,389.81 629.022,388.365 628.383,386.699C627.744,385.032 627.425,383.143 627.425,381.032L627.425,364.78L621.591,364.78L621.591,356.863L624.091,356.863C627.147,356.863 628.675,355.335 628.675,352.28L628.675,346.863Z" style="fill:white;fill-rule:nonzero;"/>
                <path d="M667.844,394.783C666.177,394.783 664.677,394.574 663.344,394.158C662.01,393.741 660.872,393.255 659.927,392.699C658.816,392.088 657.844,391.393 657.01,390.616L655.343,394.366L648.26,394.366L648.26,341.862L657.844,341.862L657.844,359.363C658.621,358.697 659.51,358.086 660.51,357.53C661.399,357.085 662.441,356.655 663.636,356.238C664.83,355.821 666.233,355.613 667.844,355.613C670.233,355.613 672.511,356.099 674.678,357.072C676.845,358.044 678.748,359.405 680.387,361.155C682.026,362.905 683.331,364.975 684.304,367.364C685.276,369.753 685.762,372.364 685.762,375.198C685.762,378.031 685.276,380.643 684.304,383.032C683.331,385.421 682.026,387.49 680.387,389.24C678.748,390.991 676.845,392.352 674.678,393.324C672.511,394.296 670.233,394.783 667.844,394.783ZM657.01,375.198C657.01,378.365 657.927,380.893 659.76,382.782C661.594,384.671 663.872,385.615 666.594,385.615C669.317,385.615 671.594,384.671 673.428,382.782C675.261,380.893 676.178,378.365 676.178,375.198C676.178,372.031 675.261,369.503 673.428,367.614C671.594,365.725 669.317,364.78 666.594,364.78C663.872,364.78 661.594,365.725 659.76,367.614C657.927,369.503 657.01,372.031 657.01,375.198Z" style="fill:white;fill-rule:nonzero;"/>
                <path d="M696.18,375.198C696.18,378.365 697.096,380.893 698.93,382.782C700.763,384.671 703.041,385.615 705.764,385.615C708.486,385.615 710.764,384.671 712.597,382.782C714.431,380.893 715.348,378.365 715.348,375.198C715.348,372.031 714.431,369.503 712.597,367.614C710.764,365.725 708.486,364.78 705.764,364.78C703.041,364.78 700.763,365.725 698.93,367.614C697.096,369.503 696.18,372.031 696.18,375.198ZM724.932,375.198C724.932,377.92 724.418,380.462 723.39,382.823C722.362,385.185 720.973,387.254 719.223,389.032C717.473,390.81 715.445,392.213 713.139,393.241C710.833,394.269 708.375,394.783 705.764,394.783C703.152,394.783 700.694,394.269 698.388,393.241C696.082,392.213 694.054,390.81 692.304,389.032C690.554,387.254 689.165,385.185 688.137,382.823C687.109,380.462 686.596,377.92 686.596,375.198C686.596,372.475 687.109,369.934 688.137,367.572C689.165,365.211 690.554,363.141 692.304,361.364C694.054,359.586 696.082,358.183 698.388,357.155C700.694,356.127 703.152,355.613 705.764,355.613C708.375,355.613 710.833,356.127 713.139,357.155C715.445,358.183 717.473,359.586 719.223,361.364C720.973,363.141 722.362,365.211 723.39,367.572C724.418,369.934 724.932,372.475 724.932,375.198Z" style="fill:white;fill-rule:nonzero;"/>
                <path d="M732.015,346.863L740.349,346.863L740.349,356.03L748.683,356.03L748.683,364.78L740.349,364.78L740.349,380.615C740.349,382.282 740.835,383.601 741.808,384.574C742.78,385.546 744.1,386.032 745.766,386.032C746.211,386.032 746.572,386.018 746.85,385.99C747.128,385.962 747.378,385.921 747.6,385.865C747.822,385.81 748.044,385.726 748.266,385.615L748.266,393.949C747.878,394.116 747.433,394.255 746.933,394.366C745.989,394.644 744.905,394.783 743.683,394.783C741.794,394.783 740.058,394.463 738.474,393.824C736.891,393.185 735.529,392.255 734.391,391.032C733.252,389.81 732.363,388.365 731.724,386.699C731.085,385.032 730.765,383.143 730.765,381.032L730.765,364.78L724.932,364.78L724.932,356.863L727.432,356.863C730.487,356.863 732.015,355.335 732.015,352.28L732.015,346.863Z" style="fill:white;fill-rule:nonzero;"/>
            </g>
        </g>
        <g transform="matrix(1,0,0,1,-1074,12992)">
            <g transform="matrix(0.120916,0,0,0.273822,1705.01,301.612)">
                <path d="M787.2,332.576C787.2,286.469 702.431,249.037 598.02,249.037L370.693,249.037L370.693,332.631C370.693,378.707 455.406,416.114 559.748,416.114L787.2,416.114L787.2,332.576Z" style="fill:rgb(255,109,0);"/>
            </g>
        </g>
        <g transform="matrix(1,0,0,1,-1074,12992)">
            <g transform="matrix(0.848538,0,0,0.925678,548.676,109.094)">
                <g transform="matrix(1,0,0,1,-2118.52,-9802.01)">
                    <circle cx="3550.99" cy="10108.4" r="4.182" style="fill:rgb(107,46,0);fill-opacity:0.498039;"/>
                </g>
                <g transform="matrix(1,0,0,1,-2105.75,-9802.01)">
                    <circle cx="3550.99" cy="10108.4" r="4.182" style="fill:rgb(107,46,0);fill-opacity:0.74902;"/>
                </g>
                <g transform="matrix(1,0,0,1,-2092.99,-9802)">
                    <circle cx="3550.99" cy="10108.4" r="4.182" style="fill:rgb(107,46,0);"/>
                </g>
            </g>
        </g>
    </g>
</svg>
